<svg width="407" height="408" xmlns="http://www.w3.org/2000/svg" xmlns:xlink="http://www.w3.org/1999/xlink" xml:space="preserve" overflow="hidden"><defs><clipPath id="clip0"><rect x="753" y="173" width="407" height="408"/></clipPath><clipPath id="clip1"><path d="M956.502 173C844.112 173 753 264.336 753 377.002 753 489.669 844.112 581.005 956.502 581.005 1068.89 581.005 1159.74 489.943 1160 377.501L1160 376.503C1159.74 264.062 1068.73 173 956.502 173Z"/></clipPath></defs><g clip-path="url(#clip0)" transform="translate(-753 -173)"><g clip-path="url(#clip1)"><path d="M-39.3173-16.3683 446.815-16.3683 446.815 423.555-39.3173 423.555Z" fill="#BE1F24" transform="matrix(1 0 0 1.00246 753 173)"/><path d="M-39.8151-16.5501 446.537-16.5501 446.537 204.11-39.8151 204.11Z" fill="#001722" transform="matrix(1 0 0 1.00246 753 173)"/><path d="M203.364 294.586C253.33 294.586 293.839 254.076 293.839 204.11 293.839 154.144 253.33 113.635 203.364 113.635 153.397 113.635 112.888 154.144 112.888 204.11 112.888 254.076 153.397 294.586 203.364 294.586" fill="#FFF200" transform="matrix(1 0 0 1.00246 753 173)"/></g><path d="M194.174 217.377C194.658 221.871 198.329 228.964 197.4 232.444 198.056 234.162 200.42 239.015 199.559 240.69 199.032 241.599 199.64 241.092 198.477 241.408 198.113 241.121 198.377 241.283 197.764 241.044 195.96 237.617 194.026 234.324 192.384 231.008 192.145 231.127 191.906 231.247 191.671 231.367 189.757 234.712 187.847 238.062 185.938 241.413 185.813 241.298 185.698 241.169 185.574 241.049 185.301 240.666 185.363 240.714 185.215 239.977 188.398 235.861 187.254 219.612 186.292 214.874 180.285 211.203 173.886 207.58 168.004 203.761 167.066 203.153 162.462 200.588 162.266 200.894 161.242 202.488 162.811 210.184 163.343 212.007 164.491 215.96 164.377 219.531 165.496 223.484 166.832 228.203 168.674 233.281 168.717 240.331L168.004 240.331C166.851 232.391 157.016 221.986 152.943 215.956L152.589 215.956C148.281 225.513 143.974 235.081 139.671 244.634L139.312 244.634 139.312 236.387C141.15 233.492 140.15 228.567 141.107 224.915 143.27 216.678 147.592 207.547 147.558 197.663 147.199 197.544 146.84 197.424 146.486 197.304 144.543 196.496 137.311 197.97 132.86 198.022 132.659 197.443 132.573 197.156 132.501 196.228 139.049 193.514 147.879 188.575 147.917 179.381 140.992 174.978 142.811 155.321 153.661 158.585 157.212 159.653 162.467 166.377 160.471 172.57 159.251 176.356 156.968 176.643 156.891 181.893 157.824 183.162 157.317 184.205 158.327 185.837 160.552 189.47 163.343 192.973 165.851 196.596 168.387 200.248 172.671 202.938 174.82 206.996 177.055 207.121 186.67 210.203 187.01 209.863 187.129 209.743 187.244 209.624 187.369 209.509 184.674 206.049 183.042 198.42 187.369 195.524 187.953 195.05 189.637 194.672 190.231 195.165 191.958 196.027 192.226 197.147 193.461 198.396 193.581 200.186 193.705 201.98 193.82 203.77 193.232 206.163 190.8 208.954 192.03 210.227 193.069 211.016 194.38 210.993 195.615 211.663 198.195 213.051 200.382 215.276 203.148 216.683 202.919 217.315 203.076 217.033 202.789 217.396 202.363 217.683 202.186 217.674 201.349 217.76 200.037 216.903 196.17 217.353 194.179 217.396" fill="#001722" transform="matrix(1 0 0 1.00246 753 173)"/><path d="M214.252 243.198 212.821 243.198C212.706 242.834 212.577 242.48 212.467 242.116 211.016 239.9 213.84 235.669 214.252 232.793 213.266 231.022 214.242 224.575 214.252 218.813 211.533 218.875 206.714 218.784 205.651 218.095 205.532 217.975 205.412 217.861 205.292 217.736 206.053 217.305 214.864 210.763 214.975 210.562L214.975 206.259C212.328 203.335 212.108 193.614 218.564 193.71 219.047 194.16 219.196 194.198 220 194.428 221.431 196.658 223.585 200.009 222.144 204.105 221.886 204.814 220.598 205.623 220.354 206.254 220.469 207.69 220.593 209.126 220.713 210.557 221.622 211.045 221.972 211.241 223.58 211.27 227.107 213.357 233.391 211.744 237.21 213.065 238.062 210.677 240.819 209.571 242.231 207.685 245.988 202.674 251.827 196.232 251.908 187.967 245.998 184.272 248.319 177.782 249.764 172.546 249.999 172.666 250.233 172.786 250.482 172.905L250.482 172.546C250.185 172.183 250.353 172.446 250.123 171.828 251.999 170.651 252.569 169.679 255.857 169.679 257.082 170.819 258.46 171.101 259.087 172.905 262.911 177.605 259.442 184.363 258.374 189.039 258.484 190.709 258.609 192.384 258.729 194.06 261.222 195.845 269.277 206.556 270.205 209.839L269.124 209.839C267.53 208.346 264.783 208.341 261.591 208.403 261.48 208.523 261.356 208.643 261.232 208.762 259.59 221.278 265.027 233.281 265.539 246.055L264.826 246.055 264.826 245.332C261.878 241.953 260.26 234.391 258.374 229.917L257.647 229.917C257.24 232.18 255.072 233.171 254.067 234.932 251.875 238.795 250.382 241.188 248.328 245.332L247.611 245.332C248.333 237.785 248.395 234.272 250.123 227.763 250.611 225.915 249.989 223.163 250.123 222.388 250.894 217.918 248.032 212.998 249.764 210.552 248.893 210.232 249.195 210.169 248.328 209.834 246.988 210.768 244.165 210.112 241.877 211.265 239.335 212.553 236.421 214.544 233.631 215.932 229.845 217.813 224.614 216.434 224.671 222.383 224.432 229.194 224.188 236.009 223.948 242.82L223.23 242.82C222.819 238.771 220.167 235.775 218.574 232.424 218.286 232.788 218.444 232.525 218.215 233.138 216.171 235.392 214.539 239.35 214.266 243.179" fill="#001722" transform="matrix(1 0 0 1.00246 753 173)"/><path d="M323.895 323.359 323.862 323.268 321.904 316.218C321.253 314.275 320.578 312.547 319.865 310.604L319.956 310.509C321.244 311.844 322.464 313.117 323.718 314.294L328.337 318.645 323.895 323.359ZM341.321 322.153 336.348 317.468 338.674 314.998 335.018 311.552 332.692 314.022 320.468 302.506 314.816 308.508 320.114 328.337 323.292 331.328 331.998 322.086 336.971 326.772 341.321 322.153ZM300.362 327.178C302.258 325.671 304.148 326.417 305.277 327.834 306.374 329.212 306.182 331.17 305.249 332.472 303.018 333.348 300.903 333.453 299.697 331.936 298.601 330.557 298.534 328.633 300.329 327.207L300.362 327.178ZM313.127 343.154C311.193 344.691 308.747 344.159 307.489 342.513 306.201 340.89 306.211 338.852 307.551 336.999 310.025 335.932 312.442 335.927 314.007 337.89 315.271 339.479 314.988 341.671 313.16 343.126L313.127 343.154ZM297.706 323.488C293.255 327.03 291.848 332.261 294.863 336.057 296.428 338.024 298.95 339 302.028 338.411L302.085 338.478C300.487 341.493 300.415 344.595 302.559 347.285 304.976 350.319 310.145 351.444 315.84 346.916 321.048 342.771 322.268 337.296 319.028 333.228 316.75 330.366 313.337 330.04 310.47 330.969L310.389 330.864C311.753 327.978 311.279 325.254 309.743 323.326 307.575 320.602 302.99 319.296 297.744 323.464L297.711 323.493ZM280.649 340.383C282.745 339.163 284.506 340.173 285.415 341.738 286.306 343.26 285.832 345.169 284.721 346.327 282.386 346.873 280.28 346.672 279.304 344.997 278.413 343.475 278.629 341.565 280.61 340.407L280.649 340.383ZM290.986 358.029C288.852 359.274 286.507 358.398 285.502 356.584 284.458 354.794 284.765 352.779 286.358 351.137 288.962 350.439 291.35 350.778 292.618 352.946 293.638 354.698 293.044 356.828 291.029 358.005L290.991 358.029ZM278.552 336.353C273.642 339.215 271.493 344.193 273.934 348.381 275.197 350.553 277.557 351.879 280.687 351.74L280.73 351.817C278.715 354.574 278.198 357.627 279.931 360.599 281.883 363.95 286.842 365.802 293.126 362.14 298.874 358.785 300.87 353.545 298.247 349.051 296.404 345.892 293.073 345.078 290.101 345.586L290.034 345.471C291.8 342.81 291.719 340.048 290.474 337.918 288.718 334.913 284.367 332.96 278.581 336.334L278.543 336.358ZM248.931 353.942C251.243 353.21 252.741 354.578 253.287 356.301 253.823 357.981 252.947 359.738 251.607 360.628 249.209 360.652 247.199 359.996 246.61 358.149 246.074 356.469 246.701 354.65 248.884 353.956L248.927 353.942ZM255.168 373.416C252.818 374.163 250.717 372.794 250.133 370.808 249.506 368.831 250.243 366.936 252.157 365.677 254.847 365.562 257.111 366.414 257.872 368.807 258.484 370.741 257.441 372.689 255.216 373.397L255.172 373.412ZM247.764 349.548C242.346 351.271 239.163 355.66 240.628 360.279 241.389 362.672 243.399 364.486 246.486 365.031L246.515 365.113C243.944 367.362 242.777 370.234 243.82 373.507 244.993 377.202 249.429 380.093 256.359 377.891 262.701 375.876 265.793 371.191 264.218 366.237 263.113 362.753 260.035 361.231 257.029 361.078L256.991 360.954C259.293 358.742 259.82 356.029 259.073 353.679 258.02 350.362 254.196 347.505 247.812 349.534L247.768 349.548ZM225.896 359.025C228.289 358.642 229.567 360.226 229.854 362.011 230.132 363.753 229.002 365.361 227.552 366.036 225.178 365.701 223.288 364.754 222.982 362.839 222.704 361.097 223.594 359.393 225.858 359.034L225.901 359.025ZM229.156 379.217C226.719 379.605 224.848 377.939 224.566 375.886 224.24 373.842 225.255 372.071 227.332 371.114 230.012 371.401 232.118 372.584 232.515 375.063 232.836 377.063 231.51 378.839 229.203 379.203L229.16 379.212ZM225.399 354.511C219.785 355.406 215.98 359.269 216.741 364.06 217.138 366.539 218.851 368.63 221.823 369.631L221.838 369.717C218.961 371.559 217.377 374.22 217.918 377.614 218.526 381.443 222.479 384.965 229.663 383.821 236.234 382.773 239.991 378.604 239.173 373.469 238.598 369.856 235.784 367.893 232.831 367.295L232.812 367.166C235.42 365.323 236.344 362.72 235.957 360.283 235.411 356.847 232.056 353.449 225.442 354.507L225.399 354.507ZM202.598 380.61C200.042 380.624 198.434 377.461 198.439 370.851 198.396 364.371 199.965 361.145 202.478 361.131 205.168 361.111 206.556 364.457 206.594 370.803 206.637 377.327 205.245 380.595 202.646 380.615L202.603 380.615ZM202.588 385.678C209.815 385.63 213.347 379.485 213.29 370.669 213.242 362.825 210.155 356.014 202.531 356.062 195.127 356.11 191.686 362.653 191.738 370.985 191.834 379.093 195.136 385.731 202.54 385.683L202.583 385.683ZM163.994 376.178C161.5 375.618 160.643 372.177 162.137 365.735 163.553 359.412 165.808 356.622 168.258 357.173 170.881 357.761 171.479 361.327 170.091 367.52 168.665 373.885 166.573 376.757 164.037 376.192L163.994 376.183ZM162.84 381.112C169.895 382.692 174.719 377.499 176.648 368.898 178.366 361.245 176.892 353.913 169.45 352.243 162.223 350.62 157.398 356.225 155.575 364.356 153.842 372.277 155.57 379.485 162.797 381.108L162.84 381.117ZM138.312 368.224C135.928 367.3 135.593 363.768 138.025 357.618 140.365 351.578 143.007 349.146 145.347 350.056 147.855 351.027 147.917 354.646 145.625 360.561 143.27 366.644 140.777 369.176 138.35 368.238L138.307 368.224ZM136.44 372.933C143.179 375.541 148.721 371.119 151.904 362.897 154.737 355.579 154.369 348.113 147.257 345.361 140.351 342.685 134.751 347.514 131.741 355.282 128.855 362.858 129.491 370.243 136.397 372.919L136.44 372.933ZM124.241 339.182C126.351 340.378 126.361 342.412 125.471 343.982 124.6 345.514 122.719 346.069 121.159 345.691 119.512 343.949 118.627 342.025 119.584 340.34 120.455 338.809 122.212 338.028 124.203 339.163L124.241 339.182ZM114.19 356.995C112.041 355.78 111.62 353.31 112.678 351.53 113.697 349.73 115.592 348.979 117.813 349.529 119.728 351.425 120.637 353.664 119.397 355.847 118.397 357.613 116.258 358.168 114.224 357.019L114.185 356.995ZM126.672 335.343C121.723 332.539 116.344 333.185 113.951 337.406 112.711 339.593 112.75 342.298 114.444 344.93L114.401 345.006C111.003 344.652 108.107 345.743 106.408 348.735 104.494 352.109 105.389 357.326 111.711 360.915 117.502 364.198 123.035 363.284 125.6 358.757 127.404 355.574 126.433 352.286 124.499 349.974L124.566 349.859C127.754 350.046 130.099 348.591 131.319 346.442 133.038 343.413 132.535 338.67 126.706 335.367L126.667 335.343ZM90.2025 345.566 95.3188 349.539 112.884 326.906 108.533 323.527 100.349 321.636 98.1377 326.279 104.048 327.576 104.115 327.628 90.1977 345.562ZM79.41 325.254C79.4435 322.794 79.5296 321.148 79.6684 320.32 79.7593 319.904 79.8407 319.114 79.9125 317.941 79.9843 316.769 80.0704 315.725 80.1709 314.811 80.2715 313.897 80.3863 313.38 80.5107 313.261 80.6783 313.098 81.5254 313.04 83.0378 313.088 84.555 313.136 85.3734 313.098 85.5026 312.978 85.651 312.835 85.7467 311.609 85.785 309.307 85.828 307 85.7754 305.775 85.6318 305.627 85.4691 305.459 84.7225 305.402 83.392 305.464 82.2289 305.483 81.1856 305.713 80.2619 306.158 79.4243 306.56 78.5293 307.216 77.5769 308.135L77.3232 308.379C75.8635 309.829 74.7101 311.566 73.8629 313.586 73.0158 315.606 72.542 317.75 72.4415 320.014 72.3171 323.359 72.542 326.111 73.1211 328.27 73.6954 330.433 74.7244 332.386 76.2129 334.137 76.5766 334.559 76.8925 334.908 77.1605 335.185 77.5051 335.544 77.7923 335.798 78.0172 335.946 78.3857 336.243 78.9744 336.554 79.7785 336.88 80.6878 337.229 81.5685 337.459 82.43 337.569 83.2914 337.679 83.8275 337.631 84.0381 337.425 84.2295 337.243 84.3492 336.023 84.4018 333.769 84.4545 331.515 84.397 330.304 84.2343 330.136 84.0716 329.969 83.2723 329.787 81.8413 329.595 80.4102 329.404 79.6445 329.256 79.544 329.15 79.4243 329.021 79.3765 327.729 79.41 325.269" fill="#FFFFFF" transform="matrix(1 0 0 1.00246 753 173)"/><path d="M372 181.228 369.492 181.53 369.286 179.835 366.572 180.161 366.778 181.85 360.039 182.664C357.795 182.937 356.766 183.502 356.1 184.353 355.545 185.134 355.397 186.124 355.531 187.235 355.651 188.225 355.866 189.029 356.077 189.537L359.049 189.149C358.948 188.804 358.886 188.517 358.838 188.139 358.752 187.412 359.073 186.66 360.738 186.459L367.242 185.674 367.582 188.474 370.296 188.149 369.956 185.349 373.66 184.904 372.004 181.228ZM370.349 175.724C370.545 176.854 371.531 177.576 372.742 177.337 374.015 177.117 374.68 176.141 374.493 175.04 374.311 173.996 373.345 173.212 372.076 173.46 370.856 173.642 370.167 174.652 370.344 175.696L370.344 175.724ZM354.847 180.419 369.008 177.983 368.358 174.188 354.196 176.624 354.847 180.419ZM351.515 163.979 352.358 167.736 360.901 165.822C361.446 165.697 361.925 165.683 362.236 165.731 363.126 165.803 363.672 166.224 363.811 166.851 364.055 167.942 362.973 168.483 361.796 168.746L353.023 170.713 353.865 174.47 362.868 172.451C365.993 171.752 367.879 170.211 367.281 167.545 366.955 166.085 365.936 165.047 364.687 164.573L364.672 164.515 366.233 163.955 365.505 160.715C364.17 161.074 362.834 161.433 361.317 161.773L351.511 163.97ZM366.142 144.672 354.54 148.52C349.855 150.076 347.629 152.512 348.936 156.446 350.128 160.045 353.358 161.017 358.187 159.418L369.76 155.58 368.549 151.928 356.335 155.977C353.492 156.92 352.487 156.417 352.138 155.355 351.812 154.378 352.382 153.292 355.143 152.378L367.357 148.329 366.146 144.677ZM343.173 140.8 344.695 144.337 363.375 136.302 361.853 132.765 343.173 140.8ZM344.619 133.387C344.384 133.507 344.159 133.583 343.977 133.612 343.073 133.775 342.451 133.329 342.159 132.75 341.896 132.224 342.01 131.281 343.269 130.645 345.054 129.745 346.256 131.147 346.849 132.262L344.619 133.387ZM349.998 134.918C352.621 133.593 355.033 131.587 353.061 127.682 352.147 125.873 350.831 124.695 350.065 124.159L348.05 125.969C348.921 126.519 349.62 127.184 350.132 128.208 350.754 129.443 350.309 130.391 349.29 130.908L349.003 131.051C347.51 128.151 344.647 125.878 341.264 127.586 339.01 128.725 338.11 130.989 339.091 132.927 339.66 134.057 340.651 134.842 341.991 135.019L342.03 135.096 340.862 135.914 342.412 138.982C343.212 138.412 344.236 137.833 345.26 137.316L350.008 134.918ZM339.388 122.168C339.038 122.384 338.674 122.575 338.32 122.618 337.516 122.767 337.042 122.508 336.784 122.082 336.2 121.13 336.947 119.771 339.225 118.368 341.202 117.153 343.097 116.641 343.819 117.818 344.159 118.368 343.901 119.01 343.465 119.483 343.26 119.713 342.968 119.962 342.642 120.163L339.388 122.168ZM345.26 123.073C346.739 122.164 348.046 121.427 349.213 120.809L347.443 117.933 346.083 118.526 346.055 118.478C346.686 117.435 346.72 116.31 346.122 115.334 344.734 113.085 341.216 112.697 337.167 115.19 334.238 116.995 331.902 119.919 333.577 122.647 334.147 123.571 335.123 124.145 336.162 124.092L336.191 124.14 335.439 124.605C333.563 125.758 332.06 125.787 331.046 124.135 330.462 123.183 330.208 122.269 330.112 121.498L327.241 122.441C327.403 123.547 327.834 124.695 328.547 125.849 329.643 127.625 330.945 128.62 332.347 128.993 333.898 129.386 335.635 129.008 338.287 127.371L345.265 123.073ZM333.285 107.26C334.463 106.427 336.224 105.748 336.975 106.762 337.655 107.686 336.779 108.916 335.315 109.998L333.29 107.255ZM335.142 114.324C335.506 114.128 335.994 113.841 336.818 113.233 340.316 110.648 341.211 107.758 339.378 105.279 337.459 102.68 333.64 102.354 329.763 105.221 326.145 107.892 325.341 111.156 327.681 114.319 328.538 115.478 329.638 116.526 330.548 117.062L332.448 115.037C331.84 114.611 331.093 113.994 330.447 113.118 329.433 111.744 329.327 110.218 331.108 108.868L335.138 114.329ZM317.999 101.909 323.785 108.672 326.264 106.552 322.976 102.713 335.544 91.959 333.041 89.0347 317.994 101.914ZM315.955 79.3717 309.547 91.6862C309.465 91.8537 309.389 92.0212 309.264 92.1504 309.121 92.2988 308.934 92.3658 308.69 92.4519 308.073 92.7104 307.345 92.8731 306.618 92.8635 305.847 92.8539 305.077 92.6816 304.45 92.4041L302.971 95.5916C303.516 95.9122 305.024 96.4291 306.89 96.2281 309.274 95.9984 311.892 94.6439 314.275 93.189L324.101 87.2351 321.397 84.622 315.285 89.2213C314.649 89.7095 313.993 90.2216 313.419 90.6907L313.376 90.6476C313.84 89.9967 314.266 89.3458 314.754 88.6279L318.942 82.2577 315.96 79.3812ZM302.195 86.522 305.12 89.0251 318.339 73.5758 315.414 71.0727 302.195 86.522ZM308.958 71.2833C309.853 71.9964 311.073 71.8767 311.82 70.8956 312.624 69.8857 312.471 68.7084 311.595 68.0144 310.767 67.3539 309.518 67.4162 308.738 68.4451 307.948 69.3928 308.106 70.6084 308.934 71.2689L308.958 71.2881ZM300.515 85.1054 309.461 73.8629 306.45 71.4651 297.505 82.7075 300.515 85.1054ZM281.505 71.5465 284.707 73.6811 289.713 66.1766C289.957 65.808 290.235 65.5017 290.436 65.3534 291.144 64.7695 291.862 64.7503 292.35 65.0758 293.355 65.7458 292.676 66.9184 292.092 67.799L287.105 75.2796 290.307 77.4142 295.346 69.8618C295.576 69.5172 295.83 69.1918 296.017 69.0721 296.667 68.5169 297.371 68.4212 297.931 68.7945 298.883 69.4311 298.299 70.6276 297.4 71.9725L292.705 79.0127 295.906 81.1473 300.961 73.571C302.87 70.7089 303.057 68.3638 300.903 66.928 300.29 66.5212 299.63 66.2914 298.946 66.2579 298.285 66.2436 297.529 66.3728 296.926 66.6408L296.878 66.6073C297.146 65.3055 296.701 64.1234 295.356 63.2236 294.136 62.41 292.657 62.4482 291.46 62.9221L291.412 62.8886 292.169 61.381 289.383 59.524C288.665 60.7061 287.947 61.8883 287.086 63.1853L281.51 71.5465ZM278.342 64.8413C278.217 65.0758 278.078 65.2672 277.944 65.3964 277.294 66.0473 276.533 66.0426 275.963 65.7363 275.446 65.4587 274.996 64.6163 275.661 63.3767 276.604 61.6155 278.394 62.0749 279.519 62.6445L278.342 64.846ZM283.625 63.0034C285.013 60.4142 285.832 57.3846 281.974 55.3218 280.189 54.3646 278.433 54.1588 277.499 54.1588L276.887 56.7959C277.916 56.7481 278.868 56.8917 279.878 57.4325 281.094 58.0834 281.276 59.1124 280.735 60.127L280.582 60.4142C277.691 58.9018 274.044 58.6816 272.254 62.0223 271.062 64.2478 271.627 66.6169 273.541 67.6459 274.656 68.2441 275.915 68.3159 277.116 67.6937L277.193 67.7368 276.71 69.0769 279.739 70.6994C280.069 69.7757 280.572 68.7132 281.113 67.6985L283.621 63.0082ZM262.151 62.0462 265.668 63.6113 268.99 56.1498 273.072 57.9637 274.374 55.0395 270.292 53.2255 272.359 48.5831 276.71 50.5166 278.069 47.4584 270.201 43.9598 262.151 62.0558ZM251.784 58.2174 255.421 59.4713 262.06 40.2506 258.422 38.9967 251.784 58.2174ZM247.285 52.1152C247.213 52.3688 247.122 52.589 247.017 52.7422 246.529 53.5223 245.782 53.6802 245.16 53.5079 244.595 53.35 243.973 52.6273 244.346 51.2681 244.882 49.3441 246.725 49.3967 247.95 49.7078L247.285 52.1152ZM252.038 49.1622C252.823 46.3289 252.961 43.1988 248.74 42.0262 246.787 41.4854 245.026 41.6673 244.117 41.8731L244.098 44.582C245.088 44.3092 246.05 44.2374 247.156 44.5437 248.486 44.9122 248.888 45.879 248.582 46.9845L248.496 47.2956C245.347 46.4533 241.738 47.0372 240.723 50.6889 240.049 53.125 241.121 55.3123 243.212 55.8914 244.428 56.2264 245.677 56.0254 246.711 55.1543L246.797 55.1782 246.62 56.5901 249.932 57.509C250.051 56.5375 250.305 55.3888 250.611 54.2833L252.033 49.1574ZM227.725 52.2444 231.501 52.991 233.205 44.4001C233.315 43.8545 233.492 43.4094 233.664 43.1414 234.09 42.3564 234.693 42.0262 235.33 42.1554 236.426 42.3708 236.483 43.5817 236.248 44.7638L234.502 53.5845 238.278 54.3311 240.073 45.2807C240.695 42.1411 240.053 39.7959 237.368 39.2647 235.899 38.9727 234.54 39.4848 233.602 40.4372L233.544 40.4277 233.664 38.7717 230.405 38.1256C230.194 39.4896 229.984 40.8584 229.682 42.3852L227.729 52.2444ZM225.662 35.8187C226.796 35.9719 227.782 35.2444 227.916 34.0144 228.088 32.7317 227.351 31.8032 226.246 31.6549 225.198 31.5161 224.154 32.2053 224.015 33.4927 223.824 34.7131 224.585 35.6751 225.633 35.8139L225.662 35.8139ZM225.513 52.0147 227.413 37.7714 223.599 37.2641 221.699 51.5074 225.513 52.0147ZM216.042 45.6445C216.013 46.0561 215.956 46.4629 215.788 46.774 215.444 47.5158 214.955 47.7455 214.458 47.712 213.342 47.6354 212.677 46.2331 212.859 43.5673 213.022 41.2509 213.711 39.413 215.085 39.5088 215.731 39.5566 216.099 40.1405 216.233 40.7675 216.3 41.069 216.334 41.4519 216.305 41.8348L216.037 45.6445ZM220.196 41.3992C220.316 39.6715 220.478 38.1782 220.66 36.8669L217.291 36.6323 216.985 38.0825 216.927 38.0825C216.444 36.953 215.549 36.2734 214.41 36.1968 211.773 36.0149 209.408 38.6473 209.078 43.395 208.839 46.8218 209.853 50.4305 213.051 50.6507 214.137 50.7272 215.171 50.2678 215.731 49.3919L215.788 49.3919C215.788 49.3919 215.726 50.2773 215.726 50.2773 215.573 52.4741 214.721 53.7137 212.787 53.5749 211.672 53.4983 210.782 53.1681 210.102 52.7996L209.193 55.6808C210.188 56.1929 211.375 56.5088 212.72 56.6045 214.802 56.7481 216.367 56.2695 217.492 55.3458 218.712 54.312 219.416 52.6799 219.631 49.5738L220.201 41.3945ZM204.991 34.3829C206.135 34.3925 207.025 33.5453 207.001 32.3106 207.011 31.0183 206.163 30.1903 205.044 30.1808 203.986 30.176 203.038 30.9896 203.062 32.2818 203.024 33.5166 203.9 34.3733 204.957 34.3829L204.986 34.3829ZM206.886 50.4688 206.977 36.1011 203.129 36.0772 203.038 50.4449 206.886 50.4688ZM194.801 50.6842 198.645 50.5119 198.324 43.2323C198.295 42.6436 198.333 42.1124 198.434 41.7869 198.779 40.3032 199.841 39.6954 200.664 39.6571 200.99 39.6428 201.253 39.6284 201.487 39.6475L201.32 35.8331C201.114 35.8139 200.908 35.7948 200.497 35.8091 199.468 35.857 198.333 36.7281 197.783 38.2835L197.663 38.2835C197.663 38.2835 197.362 36.1825 197.362 36.1825L194.045 36.3308C194.165 37.6805 194.289 39.2312 194.351 40.6383L194.797 50.6794ZM187.426 48.5639C186.081 48.7075 185.483 46.707 185.22 44.2804 185.004 42.2942 185.033 39.8103 186.435 39.6571 187.752 39.5135 188.335 41.9353 188.551 43.9215 188.776 45.9938 188.714 48.4251 187.455 48.5639L187.426 48.5639ZM187.713 51.4882C189.848 51.2585 192.987 49.4111 192.346 43.4812 191.863 38.9823 189.542 36.3691 186.148 36.7329 183.315 37.0392 180.874 39.638 181.429 44.7495 181.927 49.3632 184.267 51.8615 187.685 51.493L187.713 51.493ZM172.307 44.3044C172.259 44.0459 172.25 43.6583 172.293 43.4094 172.364 42.6771 172.747 41.9784 173.322 41.8731 174.595 41.6385 175.432 43.0983 175.887 45.5535 176.385 48.2385 176.16 49.928 174.887 50.1625 174.422 50.2486 173.858 50.0859 173.35 49.1335 173.221 48.9181 173.106 48.6118 173.034 48.2337L172.307 44.3044ZM169.416 49.8322C169.66 51.1628 169.9 52.7613 170.072 54.0152L173.307 53.417 173.207 51.7323 173.293 51.7179C174.303 52.9671 175.231 53.3021 176.413 53.082 179.041 52.5938 180.505 49.5164 179.587 44.5485 178.888 40.7627 177.036 37.8767 174.322 38.3792 172.963 38.6281 172.163 39.4657 171.685 40.6L171.627 40.6095 170.273 33.3013 166.487 34 169.416 49.8322ZM159.471 49.0425 159.074 44.8548C158.964 43.6965 158.705 41.6625 158.552 40.332L158.638 40.308C159.155 41.5045 159.94 43.3615 160.462 44.4671L162.194 48.2864 159.476 49.0378ZM163.328 51.0814 165.329 55.2213 168.952 54.2163 159.949 36.1585 155.503 37.3933 156.661 57.6239 160.256 56.6284 159.897 52.0338 163.324 51.0862ZM141.322 63.4964 144.893 62.0606 141.628 53.9339C141.423 53.417 141.327 52.948 141.327 52.6321 141.255 51.7419 141.581 51.1388 142.184 50.8947 143.222 50.4784 143.931 51.4595 144.38 52.5794L147.731 60.9215 151.301 59.4857 147.865 50.9235C146.673 47.9513 144.854 46.3384 142.318 47.3579 140.925 47.9178 140.068 49.0856 139.8 50.397L139.743 50.4209 138.939 48.9708 135.857 50.2056C136.426 51.4643 136.996 52.723 137.575 54.1684L141.317 63.4964ZM133.942 62.0941C134.062 62.3286 134.143 62.5535 134.167 62.7354 134.33 63.64 133.885 64.2622 133.306 64.5541 132.779 64.8173 131.836 64.7025 131.2 63.4437 130.3 61.6585 131.702 60.4572 132.817 59.8638L133.942 62.0941ZM135.474 56.7146C134.148 54.0918 132.143 51.6797 128.237 53.6515 126.428 54.5656 125.251 55.8818 124.715 56.6476L126.524 58.6625C127.074 57.7914 127.739 57.0927 128.764 56.5806 129.998 55.9584 130.946 56.4035 131.458 57.4229L131.602 57.7101C128.701 59.2033 126.428 62.0654 128.137 65.4491 129.276 67.7033 131.54 68.6031 133.478 67.6219 134.607 67.0524 135.392 66.0617 135.569 64.7216L135.646 64.6833 136.464 65.8511 139.532 64.3004C138.963 63.5012 138.384 62.477 137.867 61.4527L135.469 56.705ZM118.981 56.9826C119.972 56.4035 120.302 55.2261 119.656 54.1732 119.005 53.058 117.856 52.7757 116.889 53.3356 115.975 53.8669 115.578 55.0538 116.253 56.1546 116.846 57.2362 118.038 57.5282 118.952 56.9969L118.976 56.9826ZM128.802 69.8618 121.565 57.4516 118.239 59.39 125.476 71.8049 128.802 69.8666ZM120.307 75.0068 123.561 72.9488 112.692 55.7669 109.438 57.8249 120.307 75.0068ZM112.735 74.7053C112.888 74.9207 113.003 75.1265 113.061 75.3035 113.362 76.1746 113.018 76.8542 112.496 77.2323 112.017 77.5769 111.065 77.6104 110.242 76.4666 109.074 74.8441 110.27 73.4418 111.28 72.676L112.74 74.7005ZM113.405 69.1535C111.687 66.77 109.327 64.7025 105.776 67.2582 104.13 68.4451 103.173 69.9288 102.766 70.7664L104.867 72.475C105.274 71.5322 105.824 70.7377 106.753 70.0676 107.873 69.2588 108.878 69.5507 109.548 70.4792L109.734 70.7424C107.107 72.6712 105.302 75.8539 107.518 78.9266 108.997 80.975 111.371 81.511 113.137 80.2379 114.161 79.5009 114.784 78.4001 114.75 77.0504L114.822 76.9978 115.813 78.022 118.603 76.0119C117.918 75.3131 117.181 74.3894 116.511 73.4609L113.405 69.1439ZM104.221 86.9671 107.202 84.5358 102.598 78.8883C102.225 78.4336 101.938 77.9837 101.823 77.6631 101.215 76.2655 101.703 75.1456 102.34 74.6239 102.589 74.4181 102.795 74.2506 102.996 74.1262L100.583 71.1636C100.406 71.2689 100.229 71.379 99.9086 71.6374 99.1093 72.2883 98.7216 73.6667 99.2098 75.2413L99.1189 75.3179 97.6208 73.8103 95.046 75.9066C95.9457 76.9164 96.9747 78.089 97.8649 79.1802L104.216 86.9671ZM86.881 79.8646 88.5896 81.7216 87.3356 82.8751 89.1831 84.8852 90.437 83.7318 95.0316 88.7284C96.5631 90.3939 97.6256 90.8965 98.7025 90.9395 99.6597 90.9395 100.55 90.4753 101.373 89.7191 102.11 89.0443 102.637 88.3981 102.924 87.9339L100.871 85.7467C100.65 86.0291 100.454 86.2492 100.172 86.5077 99.631 87.0054 98.8365 87.1777 97.7022 85.9477L93.2655 81.1234 95.3427 79.2137 93.4953 77.2036 91.4181 79.1132 88.8911 76.366 86.8714 79.8599ZM90.3796 99.3917C91.1884 99.272 92.3993 98.4823 93.2368 97.6161 95.2996 95.4815 95.6251 92.8587 93.5096 90.8151 92.3466 89.6952 90.7194 89.2213 88.3838 89.9105 86.8762 90.3317 86.3736 90.2982 85.9094 89.8531 85.4452 89.4032 85.3494 88.6997 86.0434 87.9818 86.5747 87.4314 87.2351 87.1298 87.8525 86.9528L86.2923 84.5071C85.4882 84.7943 84.622 85.2633 83.7844 86.1296 81.7838 88.2019 81.9178 90.9012 83.7748 92.696 84.7273 93.6149 86.1918 94.2132 88.7571 93.457 90.1833 93.0789 90.7864 93.0885 91.3368 93.6197 91.9302 94.1893 91.8585 94.8976 91.1645 95.6155 90.4896 96.3143 89.4606 96.7881 88.8193 96.946L90.3796 99.3917ZM78.7639 91.6766 76.2943 94.6296 83.3297 100.507C83.7126 100.827 83.995 101.177 84.1242 101.478 84.3731 101.914 84.4927 102.55 84.0572 103.072 83.3776 103.886 82.2098 103.402 80.7644 102.201L74.4038 96.8886 71.9342 99.8416 78.6107 105.417C81.5876 107.906 83.8418 108.37 85.5935 106.274 86.5555 105.125 86.6991 103.713 86.388 102.574L86.4263 102.531 87.7329 103.355 89.8627 100.808C88.7858 99.9851 87.5989 99.071 86.4263 98.0899L78.7591 91.6862ZM71.6566 111.821 68.6892 108.839C67.8708 108.011 66.3776 106.609 65.4156 105.681L65.4682 105.609C66.6265 106.207 68.4164 107.14 69.5172 107.662L73.279 109.514 71.6566 111.821ZM75.9305 110.945 80.1087 112.874 82.272 109.797 63.8506 101.565 61.1991 105.341 74.9398 120.23 77.0839 117.177 73.8869 113.855 75.9305 110.945ZM70.0485 128.472 71.9868 125.145 54.4221 114.903 52.4837 118.23 70.0485 128.472ZM63.2188 131.712C63.4533 131.831 63.6495 131.961 63.7835 132.095 64.4536 132.726 64.4632 133.487 64.1712 134.067 63.908 134.593 63.0752 135.062 61.8165 134.425 60.0313 133.526 60.4477 131.726 60.9885 130.587L63.2188 131.712ZM61.2517 126.476C58.629 125.15 55.5851 124.404 53.6084 128.314 52.6943 130.123 52.5316 131.884 52.5555 132.817L55.207 133.363C55.1304 132.339 55.2548 131.377 55.7717 130.357 56.3939 129.123 57.4181 128.917 58.4423 129.434L58.7295 129.577C57.2889 132.501 57.1549 136.153 60.5386 137.862 62.7928 139.001 65.1476 138.379 66.1287 136.436 66.6982 135.306 66.7413 134.047 66.0904 132.86L66.1287 132.779 67.4784 133.229 69.029 130.161C68.0958 129.855 67.0237 129.381 65.9995 128.864L61.2517 126.466ZM61.381 146.544 62.8598 142.988 56.1307 140.193C55.5898 139.968 55.1208 139.709 54.8672 139.48 53.6706 138.537 53.5701 137.316 53.886 136.555 54.0105 136.259 54.111 136.014 54.2306 135.809L50.7033 134.344C50.598 134.521 50.4927 134.703 50.3348 135.081 49.9423 136.029 50.2486 137.431 51.4212 138.589L51.3733 138.699 49.3393 138.077 48.0662 141.145C49.3393 141.609 50.799 142.155 52.1008 142.696L61.381 146.553ZM42.7058 148.286 45.0845 149.143 44.5102 150.746 47.0803 151.67 47.6546 150.066 54.044 152.359C56.1737 153.125 57.3463 153.077 58.3227 152.617 59.1698 152.172 59.7441 151.349 60.1222 150.296 60.462 149.358 60.6295 148.54 60.6678 147.994L57.8393 147.008C57.7771 147.362 57.7053 147.645 57.5761 148.008 57.3272 148.697 56.705 149.224 55.1256 148.659L48.9564 146.443 49.9088 143.787 47.3387 142.863 46.3863 145.52 42.8733 144.256 42.7058 148.286ZM54.7523 166.985 55.7813 163.276 47.3435 160.935C46.8027 160.787 46.3767 160.576 46.1231 160.385 45.3717 159.902 45.0893 159.275 45.2616 158.652 45.5583 157.576 46.7692 157.609 47.9322 157.93L56.5949 160.332 57.6239 156.623 48.7315 154.158C45.6445 153.302 43.261 153.771 42.5287 156.403 42.1267 157.848 42.5335 159.241 43.4142 160.246L43.3998 160.304 41.7582 160.064 40.8728 163.266C42.2177 163.577 43.5673 163.888 45.0653 164.305L54.7475 166.99ZM44.649 173.733C43.2419 173.427 41.5524 172.58 41.7965 171.34 42.0214 170.215 43.5242 170.034 45.3094 170.388L44.649 173.733ZM48.6214 167.602C48.2289 167.464 47.6929 167.296 46.683 167.1 42.4187 166.253 39.6763 167.54 39.078 170.565 38.451 173.733 40.7818 176.772 45.5104 177.71 49.9184 178.581 52.8762 176.983 53.6371 173.121 53.9147 171.709 53.9482 170.187 53.7329 169.158L50.957 169.115C51.0527 169.852 51.1005 170.819 50.8852 171.886 50.5549 173.556 49.4972 174.667 47.3004 174.26L48.6214 167.602ZM48.6597 179.534C48.7506 180.017 48.808 180.764 48.7315 181.405 48.4491 183.741 46.3959 185.296 41.7008 184.732 36.8286 184.143 35.1965 181.965 35.4598 179.807 35.5603 178.96 35.7948 178.486 36.0532 178.074L32.9232 177.045C32.6456 177.395 32.2388 178.294 32.076 179.634 31.6166 183.454 34.0048 187.919 41.4136 188.814 47.0133 189.489 51.4164 187.594 52.0242 182.549 52.1822 181.238 52.1104 180.132 51.9142 179.548L48.6597 179.539Z" fill="#FFFFFF" transform="matrix(1 0 0 1.00246 753 173)"/><path d="M293.657 123.777 296.088 126.758 302.875 121.226C303.306 120.871 303.727 120.642 304.028 120.551 304.856 120.216 305.531 120.35 305.943 120.847 306.646 121.714 305.924 122.685 304.99 123.446L298.022 129.127 300.453 132.109 307.604 126.28C310.087 124.255 311.083 122.039 309.36 119.924 308.412 118.761 307.039 118.287 305.713 118.426L305.675 118.378 306.819 117.177 304.718 114.602C303.684 115.521 302.65 116.44 301.444 117.421L293.657 123.772ZM290.407 116.526C289.445 115.578 290.623 113.846 292.336 112.108 293.738 110.687 295.686 109.136 296.687 110.132 297.625 111.06 296.122 113.041 294.72 114.463 293.255 115.947 291.331 117.435 290.431 116.545L290.412 116.526ZM288.321 118.593C289.847 120.101 293.26 121.369 297.452 117.124 300.635 113.903 301.195 110.452 298.768 108.059 296.739 106.054 293.188 105.805 289.575 109.466 286.31 112.769 285.856 116.157 288.301 118.574L288.321 118.593ZM291.968 99.7793C292.839 100.526 294.064 100.449 294.844 99.4922 295.686 98.511 295.571 97.3289 294.724 96.6062 293.92 95.917 292.671 95.9314 291.853 96.9317 291.029 97.8506 291.144 99.071 291.948 99.7602L291.972 99.7793ZM283.032 113.29 292.374 102.373 289.45 99.8703 280.108 110.787 283.032 113.29ZM283.841 92.3036 282.314 94.3185 280.955 93.2895 279.304 95.4671 280.663 96.4961 276.566 101.909C275.202 103.713 274.896 104.848 275.044 105.915 275.216 106.858 275.829 107.652 276.719 108.327 277.514 108.93 278.241 109.332 278.753 109.533L280.538 107.126C280.223 106.958 279.969 106.805 279.667 106.576 279.084 106.13 278.768 105.379 279.777 104.044L283.736 98.8221 285.985 100.526 287.636 98.3483 285.387 96.6445 287.641 93.6676 283.846 92.3036ZM270.325 98.1329C270.186 98.3579 270.038 98.5445 269.894 98.6642 269.205 99.2768 268.444 99.2194 267.899 98.8844 267.396 98.578 266.999 97.7118 267.741 96.5105 268.789 94.8114 270.545 95.3762 271.636 96.0127L270.325 98.1377ZM275.709 96.6206C277.25 94.1175 278.251 91.1453 274.522 88.8528 272.795 87.7903 271.057 87.4792 270.124 87.4218L269.353 90.0206C270.383 90.0302 271.325 90.236 272.302 90.8342 273.479 91.5569 273.594 92.6003 272.996 93.5719L272.828 93.8494C270.033 92.1648 266.405 91.7244 264.419 94.9502 263.093 97.104 263.515 99.5018 265.367 100.641 266.444 101.301 267.698 101.454 268.932 100.904L269.009 100.952 268.444 102.263 271.373 104.068C271.756 103.163 272.321 102.134 272.924 101.158L275.714 96.6301ZM255.407 94.979 258.843 96.7115 262.127 90.2073C262.39 89.6808 262.682 89.2357 262.931 89.0012 263.96 87.8765 265.18 87.8669 265.917 88.2354 266.204 88.3838 266.444 88.4987 266.64 88.6327L268.363 85.2202C268.19 85.1006 268.023 84.9809 267.654 84.799 266.736 84.3348 265.314 84.5406 264.079 85.627L263.974 85.5744 264.745 83.593 261.782 82.0997C261.227 83.3345 260.576 84.7512 259.939 86.0099L255.412 94.9837ZM249.63 89.4989C248.376 88.9964 248.788 86.9432 249.697 84.6794 250.439 82.8272 251.636 80.6448 252.942 81.1712 254.167 81.6642 253.55 84.0764 252.803 85.9285 252.028 87.8669 250.827 89.9823 249.654 89.5085L249.625 89.4989ZM248.51 92.2126C250.501 93.0119 254.139 92.8587 256.364 87.3213 258.049 83.1239 257.23 79.7211 254.067 78.4528 251.42 77.3903 248.051 78.5389 246.132 83.3106 244.404 87.618 245.294 90.9204 248.482 92.203L248.51 92.2126ZM237.732 78.7064C237.828 78.3666 237.967 78.0077 238.187 77.7684 238.507 77.1892 239.201 76.8111 239.766 76.9739 240.867 77.2945 241.106 78.8931 240.341 81.5158 239.718 83.66 238.68 85.4404 237.383 85.0623 236.962 84.9378 236.545 84.5741 236.512 83.6456 236.454 83.3202 236.521 82.8846 236.65 82.43L237.732 78.7064ZM229.917 91.7962 233.611 92.8683 235.507 86.3497 235.564 86.3641C235.779 87.1011 236.335 88.0248 237.464 88.3551 239.804 89.0347 242.6 87.4314 244.026 82.5209 245.131 78.7112 244.854 75.0499 241.834 74.1693 240.537 73.7912 239.288 74.1932 238.393 75.16L238.335 75.1408 238.603 73.4753 235.387 72.542C235.057 73.8821 234.712 75.2844 234.229 76.9499L229.912 91.7914ZM223.049 84.8038 226.834 85.5026 228.16 78.3379C228.265 77.7588 228.423 77.2515 228.596 76.9547 229.266 75.5859 230.438 75.2318 231.247 75.3849 231.563 75.4423 231.826 75.4902 232.051 75.562L232.745 71.8049C232.549 71.7379 232.353 71.6709 231.946 71.5992 230.936 71.4125 229.629 72.006 228.744 73.3987L228.629 73.3796 228.811 71.2641 225.547 70.6611C225.36 72.0012 225.135 73.5423 224.877 74.9302L223.049 84.8134ZM215.96 81.1664C214.616 81.0372 214.429 78.9553 214.659 76.5288 214.85 74.5378 215.372 72.1113 216.779 72.2453 218.095 72.3697 218.181 74.8584 217.995 76.8494 217.798 78.9266 217.248 81.2957 215.989 81.176L215.96 81.176ZM215.654 84.0907C217.789 84.2965 221.235 83.1144 221.804 77.1797 222.23 72.676 220.483 69.6464 217.09 69.321 214.252 69.053 211.342 71.1062 210.854 76.2225 210.413 80.8458 212.203 83.7605 215.625 84.0859L215.654 84.0859ZM208.992 79.7546C208.523 79.8981 207.786 80.0417 207.14 80.0369 204.79 80.0226 203.009 78.1608 203.038 73.4274 203.067 68.5217 205.048 66.6504 207.226 66.6647 208.078 66.6695 208.576 66.8514 209.016 67.0572L209.681 63.8314C209.303 63.5921 208.36 63.2954 207.011 63.2858 203.163 63.2619 198.999 66.1431 198.951 73.6093 198.913 79.252 201.301 83.4063 206.379 83.4398 207.7 83.4494 208.791 83.2484 209.351 82.9899L208.987 79.7546ZM188.264 84.1864 192.092 83.7748 189.91 63.5586 186.081 63.9702 188.264 84.1864ZM181.257 80.7309C181.305 80.9894 181.319 81.2287 181.295 81.4105 181.195 82.3247 180.596 82.7937 179.96 82.9133 179.381 83.0186 178.505 82.6453 178.251 81.2574 177.888 79.2903 179.572 78.5341 180.807 78.2757L181.262 80.7309ZM184.234 75.9975C183.698 73.1068 182.449 70.2303 178.146 71.0296 176.15 71.3981 174.652 72.3362 173.925 72.9153L175.092 75.3562C175.863 74.6766 176.701 74.1932 177.825 73.9826 179.185 73.7289 179.969 74.4229 180.175 75.5476L180.233 75.8635C177.031 76.4857 174.044 78.5916 174.734 82.3199 175.193 84.8038 177.112 86.3019 179.252 85.9046 180.496 85.6749 181.525 84.9474 182.071 83.7078L182.157 83.6935 182.616 85.0431 185.995 84.4162C185.674 83.4877 185.402 82.3438 185.196 81.2191L184.229 75.9879ZM163.558 89.9297 167.239 88.8097 164.692 80.4342C164.53 79.8981 164.477 79.4243 164.506 79.1084 164.506 78.2182 164.889 77.6391 165.506 77.4525 166.573 77.127 167.195 78.1656 167.55 79.319L170.168 87.9195 173.848 86.7996 171.163 77.9742C170.23 74.9111 168.56 73.145 165.942 73.9443 164.506 74.3798 163.549 75.4711 163.17 76.7537L163.113 76.7729 162.438 75.2605 159.26 76.2272C159.72 77.5291 160.174 78.8356 160.629 80.3241L163.553 89.9392ZM153.378 76.6915C154.441 76.2655 154.943 75.1456 154.455 74.0113 153.972 72.81 152.876 72.3649 151.842 72.7813 150.861 73.1738 150.296 74.2889 150.803 75.4758 151.234 76.6341 152.373 77.0935 153.354 76.7011L153.383 76.6915ZM161.218 90.863 155.867 77.5291 152.297 78.9649 157.647 92.2988 161.218 90.863ZM149.525 90.1211C149.707 90.4896 149.86 90.8725 149.87 91.2267 149.942 92.0403 149.636 92.4854 149.186 92.7056 148.181 93.1985 146.903 92.3179 145.725 89.9153 144.706 87.8286 144.38 85.8951 145.62 85.2872 146.199 85.0048 146.817 85.3255 147.247 85.7993 147.458 86.0243 147.678 86.3401 147.846 86.6847L149.525 90.1163ZM150.995 84.3635C150.234 82.8081 149.626 81.4345 149.123 80.2092L146.089 81.6929 146.549 83.1048 146.496 83.1287C145.515 82.3965 144.4 82.2577 143.371 82.7602 140.997 83.9232 140.269 87.3835 142.361 91.6622 143.873 94.7492 146.558 97.3624 149.435 95.9553 150.411 95.4767 151.076 94.5626 151.124 93.524L151.177 93.5001 151.564 94.2898C152.531 96.2712 152.416 97.7644 150.674 98.6163 149.669 99.1093 148.736 99.272 147.96 99.2912L148.621 102.239C149.736 102.182 150.923 101.866 152.139 101.273 154.015 100.354 155.125 99.1572 155.637 97.7931 156.178 96.2855 155.967 94.5243 154.599 91.7244L150.995 84.3587ZM133.813 86.3162C134.794 85.7275 135.115 84.5454 134.454 83.502 133.789 82.3917 132.636 82.1236 131.678 82.698 130.769 83.2436 130.386 84.4305 131.075 85.5265 131.683 86.5986 132.88 86.8762 133.784 86.3354L133.808 86.321ZM143.792 99.0758 136.407 86.7517 133.105 88.7284 140.489 101.052 143.792 99.0758ZM133.377 105.767 136.555 103.594 132.439 97.5778C132.109 97.0944 131.855 96.6253 131.769 96.2903 131.281 94.8449 131.86 93.7729 132.54 93.3086 132.808 93.1268 133.023 92.9784 133.234 92.8683L131.075 89.7143C130.889 89.8052 130.702 89.8962 130.362 90.1307 129.515 90.7098 129.008 92.0547 129.362 93.6628L129.266 93.7298 127.902 92.1025 125.164 93.9787C125.978 95.0603 126.907 96.3143 127.701 97.4773L133.377 105.771ZM125.811 108.203C124.762 109.059 123.169 107.705 121.628 105.815 120.364 104.264 119.034 102.168 120.125 101.277 121.149 100.44 122.958 102.148 124.222 103.699 125.538 105.317 126.811 107.389 125.835 108.184L125.811 108.203ZM127.644 110.5C129.304 109.146 130.932 105.886 127.165 101.263 124.303 97.7549 120.934 96.8264 118.292 98.9801 116.081 100.78 115.454 104.288 118.703 108.275 121.637 111.874 124.959 112.692 127.62 110.519L127.644 110.5ZM110.567 113.472C110.38 113.286 110.151 112.974 110.045 112.75 109.686 112.108 109.6 111.318 110.012 110.902 110.921 109.983 112.443 110.701 114.219 112.458 116.162 114.377 116.942 115.889 116.033 116.808 115.702 117.143 115.143 117.335 114.185 116.842 113.956 116.741 113.683 116.554 113.415 116.286L110.572 113.477ZM111.352 119.661C112.314 120.608 113.42 121.79 114.281 122.719L116.593 120.378 115.545 119.053 115.607 118.991C117.148 119.436 118.1 119.182 118.947 118.325 120.828 116.425 120.268 113.061 116.674 109.509 113.936 106.805 110.768 105.494 108.83 107.456 107.858 108.437 107.681 109.581 107.935 110.787L107.892 110.83 102.603 105.604 99.899 108.342 111.352 119.661ZM102.574 125.136 99.7889 121.982C99.0184 121.106 97.6161 119.613 96.7115 118.632L96.7689 118.565C97.8889 119.23 99.6166 120.268 100.689 120.857L104.331 122.929 102.574 125.136ZM106.896 124.518 110.95 126.691 113.29 123.748 95.3953 114.429 92.5237 118.038 105.35 133.727 107.672 130.807 104.68 127.299 106.891 124.518Z" fill="#FFFFFF" transform="matrix(1 0 0 1.00246 753 173)"/><path d="M250.2 304.148 259.059 318.152C264.103 326.121 270.028 327.327 276.36 323.321 282.917 319.171 284.497 313.012 279.591 305.263L270.684 291.183 265.022 294.763 274.14 309.178C276.968 313.648 276.647 316.769 273.666 318.654 270.799 320.468 267.731 319.334 264.974 314.974L255.852 300.558 250.19 304.138ZM241.36 338.995 258.705 332.524 256.733 327.241 245.667 331.371 237.254 308.824 230.979 311.164 241.365 338.995ZM214.089 344.03 220.703 342.977 218.827 331.18 229.361 329.504 228.5 324.106 217.966 325.781 216.899 319.076 228.174 317.281 227.308 311.839 209.418 314.687 214.089 344.025ZM189.034 330.816 191.197 324.627C191.734 322.938 192.346 320.717 192.844 318.98L192.978 318.99C193.322 320.732 193.72 323.005 194.103 324.795L195.591 331.194 189.034 330.821ZM196.319 336.262 198.171 344.006 205.388 344.418 197.84 314.232 189.082 313.734 178.328 342.877 185.282 343.274 187.785 335.779 196.323 336.267ZM158.394 323.393 162.027 317.932C162.969 316.429 164.109 314.433 165.023 312.873L165.147 312.911C165.047 314.682 164.869 316.984 164.798 318.812L164.654 325.379 158.394 323.388ZM164.099 330.476 163.974 338.435 170.862 340.627 171.039 309.513 162.677 306.857 145.027 332.419 151.665 334.53 155.948 327.892 164.099 330.481ZM140.662 322.373C139.197 322.144 137.115 321.325 135.349 320.239 130.281 317.118 129.247 312.078 132.344 307.048 135.809 301.42 141.025 300.85 145.529 303.626 147.592 304.899 148.927 306.34 149.755 307.522L153.752 303.722C153.038 302.612 151.157 300.621 148.19 298.797 140.532 294.083 131.444 295.059 126.15 303.65 121.714 310.853 122.843 319.109 131.587 324.493 134.627 326.365 137.398 327.245 138.714 327.379L140.662 322.368Z" fill="#FFFFFF" transform="matrix(1 0 0 1.00246 753 173)"/></g></svg>